<?xml version="1.0" encoding="iso-8859-1"?>
<!-- Generator: Adobe Illustrator 16.0.0, SVG Export Plug-In . SVG Version: 6.00 Build 0)  -->
<!DOCTYPE svg PUBLIC "-//W3C//DTD SVG 1.1//EN" "http://www.w3.org/Graphics/SVG/1.1/DTD/svg11.dtd">
<svg version="1.1" id="Capa_1" xmlns="http://www.w3.org/2000/svg" xmlns:xlink="http://www.w3.org/1999/xlink" x="0px" y="0px"
	 width="401.16px" height="401.161px" viewBox="0 0 401.16 401.161" fill="#191847" style="enable-background:new 0 0 401.16 401.161;"
	 xml:space="preserve">
<g>
	<path d="M391.044,83.718L203.708,0.664c-1.992-0.885-4.266-0.885-6.258,0L10.116,83.718c-3.18,1.41-4.536,4.306-4.536,7.99v216.257
		c0,2.933,1.711,5.597,4.379,6.815l187.505,85.701c0.995,0.454,2.055,0.679,3.115,0.679c1.192,0,2.032-0.134,3.108-0.693
		c0.002,0.005,187.514-85.688,187.514-85.688c2.667-1.22,4.379-3.884,4.379-6.815V91.708
		C395.58,88.219,394.225,85.127,391.044,83.718z M119.148,135.125c-2.592,1.247-4.242,3.872-4.242,6.749v73.108l-36.617-17.278
		v-72.346l176.623-85.101l31.834,14.113L119.148,135.125z M200.58,16.169l36.352,16.116L74.557,110.523L31.824,90.991L200.58,16.169
		z M193.088,382.003L20.567,303.15V102.322l42.735,19.533v80.598c0,2.901,1.673,5.54,4.297,6.776l51.604,24.354
		c1.015,0.479,2.105,0.718,3.194,0.718c1.401,0,2.794-0.393,4.013-1.164c2.169-1.377,3.482-3.764,3.482-6.331v-74.516l63.196,28.884
		V382.003z M200.58,168.124l-59.218-27.068l163.364-78.711l64.61,28.646L200.58,168.124z M380.593,303.15l-172.519,78.854V181.175
		l172.519-78.854V303.15z"/>
</g>
<g>
</g>
<g>
</g>
<g>
</g>
<g>
</g>
<g>
</g>
<g>
</g>
<g>
</g>
<g>
</g>
<g>
</g>
<g>
</g>
<g>
</g>
<g>
</g>
<g>
</g>
<g>
</g>
<g>
</g>
</svg>
